<?xml version="1.0" encoding="utf-8"?>
<!-- Generator: Adobe Illustrator 27.9.0, SVG Export Plug-In . SVG Version: 6.00 Build 0)  -->
<svg version="1.1" id="Calque_1" xmlns="http://www.w3.org/2000/svg" xmlns:xlink="http://www.w3.org/1999/xlink" x="0px" y="0px"
	 viewBox="0 0 29.8 34.1" style="enable-background:new 0 0 29.8 34.1;" xml:space="preserve">
<style type="text/css">
	.st0{fill:#FF0000;}
	.st1{fill:#FFFFFF;}
	.st2{enable-background:new    ;}
	.st3{display:none;}
	.st4{display:inline;fill:#FFFFFF;}
</style>
<g>
	<path class="st0" d="M14.9,34.1C1.9,27-0.1,19.5,0,2.3C4.7,0.5,10.7,0,14.9,0s10.3,0.5,14.9,2.3C29.9,19.5,27.9,27,14.9,34.1z"/>
	<polygon class="st1" points="25.1,11.9 25.1,17.8 17.9,17.8 17.9,25 12,25 12,17.8 4.8,17.8 4.8,11.9 12,11.9 12,4.7 17.9,4.7 
		17.9,11.9 	"/>
</g>
<g class="st2">
	<path d="M-40.6-1.8l0.5,0.9c-1.1,0.2-1.9,0.7-2.5,1.2c-0.5,0.6-0.8,1.4-0.8,2.4c0,0.8,0.2,1.4,0.5,2s0.9,1.1,1.7,1.5s1.8,0.9,3,1.4
		c1.9,0.7,3.3,1.4,4.3,2.1c1,0.7,1.8,1.5,2.2,2.3c0.4,0.8,0.6,1.7,0.6,2.8c0,1.1-0.3,2.1-0.8,3c-0.5,0.9-1.3,1.6-2.3,2.1
		s-2.2,0.8-3.7,0.8c-0.9,0-1.6-0.1-2.2-0.3s-1.1-0.4-1.5-0.6c-0.4-0.2-0.7-0.3-0.9-0.3c-0.2,0-0.4,0.1-0.5,0.3
		c-0.1,0.2-0.2,0.4-0.3,0.6c-0.1,0.2-0.3,0.3-0.6,0.3c-0.2,0-0.4-0.1-0.5-0.2c-0.1-0.1-0.2-0.3-0.3-0.6l-1.2-4.7
		c-0.1-0.5,0-0.8,0.4-0.9c0.2-0.1,0.4-0.1,0.6,0c0.2,0.1,0.3,0.2,0.5,0.5c0.5,1.1,1.2,2,1.8,2.7s1.4,1.1,2.2,1.4
		c0.8,0.3,1.6,0.4,2.4,0.4c1.2,0,2.1-0.3,2.7-1c0.7-0.7,1-1.5,1-2.5c0-0.6-0.1-1.2-0.4-1.7c-0.3-0.5-0.7-1-1.4-1.4
		c-0.7-0.5-1.6-0.9-2.8-1.4c-1.8-0.6-3.2-1.3-4.3-2s-1.8-1.5-2.3-2.3c-0.5-0.9-0.7-1.9-0.7-3c0-1,0.2-1.9,0.7-2.7
		c0.4-0.8,1.1-1.5,1.9-2S-41.8-1.6-40.6-1.8z M-37.2,10l-0.1-1c1.2-0.1,2.2-0.4,2.8-1.1c0.7-0.6,1-1.5,1-2.5c0-0.7-0.2-1.3-0.5-1.8
		c-0.3-0.5-0.8-1-1.6-1.5c-0.7-0.5-1.8-1-3.1-1.5c-1.8-0.6-3.2-1.3-4.3-2c-1.1-0.7-1.8-1.5-2.3-2.3c-0.5-0.9-0.7-1.9-0.7-3
		c0-1.2,0.3-2.3,0.9-3.2c0.6-0.9,1.4-1.6,2.4-2.2c1-0.5,2.2-0.8,3.5-0.8c0.9,0,1.6,0.1,2.2,0.3c0.6,0.2,1.1,0.4,1.5,0.6
		s0.7,0.3,1,0.3c0.3,0,0.5-0.1,0.5-0.3c0.1-0.2,0.2-0.4,0.3-0.6c0.1-0.2,0.3-0.3,0.6-0.3c0.2,0,0.4,0.1,0.5,0.2
		c0.1,0.1,0.2,0.3,0.3,0.6l1.5,5.1c0.1,0.2,0.1,0.4,0,0.6c-0.1,0.2-0.2,0.3-0.5,0.3c-0.4,0.1-0.8,0-1-0.4c-0.6-1.2-1.3-2.2-2-2.9
		c-0.7-0.7-1.5-1.3-2.3-1.6c-0.8-0.3-1.6-0.5-2.4-0.5c-1.1,0-2,0.3-2.6,1c-0.7,0.7-1,1.6-1,2.7c0,0.7,0.1,1.4,0.4,1.9
		c0.3,0.6,0.8,1.1,1.5,1.5c0.7,0.5,1.6,0.9,2.7,1.4c1.9,0.7,3.3,1.4,4.4,2.1c1,0.7,1.8,1.5,2.2,2.3c0.4,0.8,0.6,1.7,0.6,2.8
		c0,1.1-0.3,2.1-0.8,2.9c-0.5,0.9-1.3,1.5-2.2,2.1S-35.8,9.9-37.2,10z"/>
</g>
<g class="st3">
	<polygon class="st4" points="-30.5,-7.3 -30.5,-6.7 -31.3,-6.7 -31.3,-6 -31.9,-6 -31.9,-6.7 -32.6,-6.7 -32.6,-7.3 -31.9,-7.3 
		-31.9,-8 -31.3,-8 -31.3,-7.3 	"/>
	<polygon class="st4" points="-30.5,-9.9 -30.5,-9.3 -31.3,-9.3 -31.3,-8.6 -31.9,-8.6 -31.9,-9.3 -32.6,-9.3 -32.6,-9.9 
		-31.9,-9.9 -31.9,-10.6 -31.3,-10.6 -31.3,-9.9 	"/>
	<polygon class="st4" points="-33.2,-9.9 -33.2,-9.3 -34,-9.3 -34,-8.6 -34.6,-8.6 -34.6,-9.3 -35.3,-9.3 -35.3,-9.9 -34.6,-9.9 
		-34.6,-10.6 -34,-10.6 -34,-9.9 	"/>
	<polygon class="st4" points="-33.2,-12.5 -33.2,-11.9 -34,-11.9 -34,-11.2 -34.6,-11.2 -34.6,-11.9 -35.3,-11.9 -35.3,-12.5 
		-34.6,-12.5 -34.6,-13.2 -34,-13.2 -34,-12.5 	"/>
	<polygon class="st4" points="-30.5,-12.5 -30.5,-11.9 -31.3,-11.9 -31.3,-11.2 -31.9,-11.2 -31.9,-11.9 -32.6,-11.9 -32.6,-12.5 
		-31.9,-12.5 -31.9,-13.2 -31.3,-13.2 -31.3,-12.5 	"/>
	<polygon class="st4" points="-36.1,-12.5 -36.1,-11.9 -36.8,-11.9 -36.8,-11.2 -37.4,-11.2 -37.4,-11.9 -38.1,-11.9 -38.1,-12.5 
		-37.4,-12.5 -37.4,-13.2 -36.8,-13.2 -36.8,-12.5 	"/>
	<polygon class="st4" points="-38.9,-12.5 -38.9,-11.9 -39.7,-11.9 -39.7,-11.2 -40.2,-11.2 -40.2,-11.9 -41,-11.9 -41,-12.5 
		-40.2,-12.5 -40.2,-13.2 -39.7,-13.2 -39.7,-12.5 	"/>
	<polygon class="st4" points="-41.7,-12.5 -41.7,-11.9 -42.4,-11.9 -42.4,-11.2 -43,-11.2 -43,-11.9 -43.7,-11.9 -43.7,-12.5 
		-43,-12.5 -43,-13.2 -42.4,-13.2 -42.4,-12.5 	"/>
	<polygon class="st4" points="-41.7,-9.9 -41.7,-9.3 -42.4,-9.3 -42.4,-8.6 -43,-8.6 -43,-9.3 -43.7,-9.3 -43.7,-9.9 -43,-9.9 
		-43,-10.6 -42.4,-10.6 -42.4,-9.9 	"/>
	<polygon class="st4" points="-44.2,-9.9 -44.2,-9.3 -44.9,-9.3 -44.9,-8.6 -45.5,-8.6 -45.5,-9.3 -46.3,-9.3 -46.3,-9.9 
		-45.5,-9.9 -45.5,-10.6 -44.9,-10.6 -44.9,-9.9 	"/>
	<polygon class="st4" points="-44.2,-7.3 -44.2,-6.7 -44.9,-6.7 -44.9,-6 -45.5,-6 -45.5,-6.7 -46.3,-6.7 -46.3,-7.3 -45.5,-7.3 
		-45.5,-8 -44.9,-8 -44.9,-7.3 	"/>
	<polygon class="st4" points="-41.7,-7.3 -41.7,-6.7 -42.4,-6.7 -42.4,-6 -43,-6 -43,-6.7 -43.7,-6.7 -43.7,-7.3 -43,-7.3 -43,-8 
		-42.4,-8 -42.4,-7.3 	"/>
	<polygon class="st4" points="-41.7,-4.7 -41.7,-4.1 -42.4,-4.1 -42.4,-3.3 -43,-3.3 -43,-4.1 -43.7,-4.1 -43.7,-4.7 -43,-4.7 
		-43,-5.4 -42.4,-5.4 -42.4,-4.7 	"/>
	<polygon class="st4" points="-44.2,-4.7 -44.2,-4.1 -44.9,-4.1 -44.9,-3.3 -45.5,-3.3 -45.5,-4.1 -46.3,-4.1 -46.3,-4.7 
		-45.5,-4.7 -45.5,-5.4 -44.9,-5.4 -44.9,-4.7 	"/>
	<polygon class="st4" points="-41.6,-2.1 -41.6,-1.5 -42.4,-1.5 -42.4,-0.8 -43,-0.8 -43,-1.5 -43.7,-1.5 -43.7,-2.1 -43,-2.1 
		-43,-2.8 -42.4,-2.8 -42.4,-2.1 	"/>
	<polygon class="st4" points="-38.9,-2.1 -38.9,-1.5 -39.7,-1.5 -39.7,-0.8 -40.2,-0.8 -40.2,-1.5 -41,-1.5 -41,-2.1 -40.2,-2.1 
		-40.2,-2.8 -39.7,-2.8 -39.7,-2.1 	"/>
	<polygon class="st4" points="-36.1,-2.1 -36.1,-1.5 -36.8,-1.5 -36.8,-0.8 -37.4,-0.8 -37.4,-1.5 -38.1,-1.5 -38.1,-2.1 
		-37.4,-2.1 -37.4,-2.8 -36.8,-2.8 -36.8,-2.1 	"/>
	<polygon class="st4" points="-36.1,0.5 -36.1,1.1 -36.8,1.1 -36.8,1.8 -37.4,1.8 -37.4,1.1 -38.1,1.1 -38.1,0.5 -37.4,0.5 
		-37.4,-0.2 -36.8,-0.2 -36.8,0.5 	"/>
	<polygon class="st4" points="-33.2,0.5 -33.2,1.1 -34,1.1 -34,1.8 -34.6,1.8 -34.6,1.1 -35.3,1.1 -35.3,0.5 -34.6,0.5 -34.6,-0.2 
		-34,-0.2 -34,0.5 	"/>
	<polygon class="st4" points="-30.6,3.2 -30.6,3.8 -31.3,3.8 -31.3,4.5 -31.9,4.5 -31.9,3.8 -32.6,3.8 -32.6,3.2 -31.9,3.2 
		-31.9,2.5 -31.3,2.5 -31.3,3.2 	"/>
	<polygon class="st4" points="-33.2,3.2 -33.2,3.8 -33.9,3.8 -33.9,4.5 -34.5,4.5 -34.5,3.8 -35.3,3.8 -35.3,3.2 -34.5,3.2 
		-34.5,2.5 -33.9,2.5 -33.9,3.2 	"/>
	<polygon class="st4" points="-33.2,8.4 -33.2,9 -33.9,9 -33.9,9.8 -34.5,9.8 -34.5,9 -35.3,9 -35.3,8.4 -34.5,8.4 -34.5,7.7 
		-33.9,7.7 -33.9,8.4 	"/>
	<polygon class="st4" points="-36.1,8.4 -36.1,9 -36.8,9 -36.8,9.8 -37.4,9.8 -37.4,9 -38.1,9 -38.1,8.4 -37.4,8.4 -37.4,7.7 
		-36.8,7.7 -36.8,8.4 	"/>
	<polygon class="st4" points="-36.1,11.2 -36.1,11.7 -36.8,11.7 -36.8,12.5 -37.4,12.5 -37.4,11.7 -38.1,11.7 -38.1,11.2 
		-37.4,11.2 -37.4,10.4 -36.8,10.4 -36.8,11.2 	"/>
	<polygon class="st4" points="-38.8,8.4 -38.8,9 -39.5,9 -39.5,9.8 -40.1,9.8 -40.1,9 -40.9,9 -40.9,8.4 -40.1,8.4 -40.1,7.7 
		-39.5,7.7 -39.5,8.4 	"/>
	<polygon class="st4" points="-41.6,8.4 -41.6,9 -42.4,9 -42.4,9.8 -43,9.8 -43,9 -43.7,9 -43.7,8.4 -43,8.4 -43,7.7 -42.4,7.7 
		-42.4,8.4 	"/>
	<polygon class="st4" points="-41.6,5.9 -41.6,6.5 -42.4,6.5 -42.4,7.2 -43,7.2 -43,6.5 -43.7,6.5 -43.7,5.9 -43,5.9 -43,5.2 
		-42.4,5.2 -42.4,5.9 	"/>
	<polygon class="st4" points="-44.2,5.9 -44.2,6.5 -44.9,6.5 -44.9,7.2 -45.5,7.2 -45.5,6.5 -46.3,6.5 -46.3,5.9 -45.5,5.9 
		-45.5,5.2 -44.9,5.2 -44.9,5.9 	"/>
	<polygon class="st4" points="-44.2,3.2 -44.2,3.8 -44.9,3.8 -44.9,4.5 -45.5,4.5 -45.5,3.8 -46.3,3.8 -46.3,3.2 -45.5,3.2 
		-45.5,2.5 -44.9,2.5 -44.9,3.2 	"/>
	<polygon class="st4" points="-44.2,0.5 -44.2,1.1 -44.9,1.1 -44.9,1.8 -45.5,1.8 -45.5,1.1 -46.3,1.1 -46.3,0.5 -45.5,0.5 
		-45.5,-0.2 -44.9,-0.2 -44.9,0.5 	"/>
	<polygon class="st4" points="-33.2,11.2 -33.2,11.7 -33.9,11.7 -33.9,12.5 -34.5,12.5 -34.5,11.7 -35.3,11.7 -35.3,11.2 
		-34.5,11.2 -34.5,10.4 -33.9,10.4 -33.9,11.2 	"/>
	<polygon class="st4" points="-33.2,13.9 -33.2,14.5 -33.9,14.5 -33.9,15.2 -34.5,15.2 -34.5,14.5 -35.3,14.5 -35.3,13.9 
		-34.5,13.9 -34.5,13.1 -33.9,13.1 -33.9,13.9 	"/>
	<polygon class="st4" points="-30.6,13.9 -30.6,14.5 -31.3,14.5 -31.3,15.2 -31.9,15.2 -31.9,14.5 -32.6,14.5 -32.6,13.9 
		-31.9,13.9 -31.9,13.1 -31.3,13.1 -31.3,13.9 	"/>
	<polygon class="st4" points="-30.6,16.8 -30.6,17.4 -31.3,17.4 -31.3,18.2 -31.9,18.2 -31.9,17.4 -32.6,17.4 -32.6,16.8 
		-31.9,16.8 -31.9,16.1 -31.3,16.1 -31.3,16.8 	"/>
	<polygon class="st4" points="-33.2,16.8 -33.2,17.4 -34,17.4 -34,18.2 -34.6,18.2 -34.6,17.4 -35.3,17.4 -35.3,16.8 -34.6,16.8 
		-34.6,16.1 -34,16.1 -34,16.8 	"/>
	<polygon class="st4" points="-33.2,19.4 -33.2,20 -34,20 -34,20.8 -34.6,20.8 -34.6,20 -35.3,20 -35.3,19.4 -34.6,19.4 -34.6,18.7 
		-34,18.7 -34,19.4 	"/>
	<polygon class="st4" points="-36.2,19.4 -36.2,20 -36.9,20 -36.9,20.8 -37.5,20.8 -37.5,20 -38.2,20 -38.2,19.4 -37.5,19.4 
		-37.5,18.7 -36.9,18.7 -36.9,19.4 	"/>
	<polygon class="st4" points="-39.2,19.4 -39.2,20 -39.9,20 -39.9,20.8 -40.5,20.8 -40.5,20 -41.2,20 -41.2,19.4 -40.5,19.4 
		-40.5,18.7 -39.9,18.7 -39.9,19.4 	"/>
	<polygon class="st4" points="-41.9,19.4 -41.9,20 -42.6,20 -42.6,20.8 -43.2,20.8 -43.2,20 -43.9,20 -43.9,19.4 -43.2,19.4 
		-43.2,18.7 -42.6,18.7 -42.6,19.4 	"/>
	<polygon class="st4" points="-41.9,16.8 -41.9,17.4 -42.6,17.4 -42.6,18.2 -43.2,18.2 -43.2,17.4 -43.9,17.4 -43.9,16.8 
		-43.2,16.8 -43.2,16.1 -42.6,16.1 -42.6,16.8 	"/>
	<polygon class="st4" points="-44.4,16.8 -44.4,17.4 -45.2,17.4 -45.2,18.2 -45.7,18.2 -45.7,17.4 -46.5,17.4 -46.5,16.8 
		-45.7,16.8 -45.7,16.1 -45.2,16.1 -45.2,16.8 	"/>
	<polygon class="st4" points="-30.6,5.9 -30.6,6.5 -31.3,6.5 -31.3,7.2 -31.9,7.2 -31.9,6.5 -32.6,6.5 -32.6,5.9 -31.9,5.9 
		-31.9,5.2 -31.3,5.2 -31.3,5.9 	"/>
</g>
</svg>
